<?xml version="1.0" encoding="utf-8"?>
<!-- Generator: Adobe Illustrator 23.0.3, SVG Export Plug-In . SVG Version: 6.00 Build 0)  -->
<svg version="1.1" id="Capa_1" xmlns="http://www.w3.org/2000/svg" xmlns:xlink="http://www.w3.org/1999/xlink" x="0px" y="0px"
	 viewBox="0 0 166.2 284.9" style="enable-background:new 0 0 166.2 284.9;" xml:space="preserve">
<g>
	<path d="M163.3,135.9l-133-133C28.4,1,26.2,0,23.7,0c-2.5,0-4.7,1-6.6,2.9L2.9,17.1C0.9,19,0,21.2,0,23.7s0.9,4.7,2.9,6.6
		l112.2,112.2L2.9,254.7c-1.9,1.9-2.9,4.1-2.9,6.6c0,2.5,0.9,4.7,2.9,6.6l14.3,14.3c1.9,1.9,4.1,2.9,6.6,2.9c2.5,0,4.7-1,6.6-2.9
		l133-133c1.9-1.9,2.9-4.1,2.9-6.6S165.2,137.8,163.3,135.9z"/>
	<path d="M163.3,135.9l-133-133C28.4,1,26.2,0,23.7,0c-2.5,0-4.7,1-6.6,2.9L2.9,17.1C0.9,19,0,21.2,0,23.7s0.9,4.7,2.9,6.6
		l112.2,112.2L2.9,254.7c-1.9,1.9-2.9,4.1-2.9,6.6c0,2.5,0.9,4.7,2.9,6.6l14.3,14.3c1.9,1.9,4.1,2.9,6.6,2.9c2.5,0,4.7-1,6.6-2.9
		l133-133c1.9-1.9,2.9-4.1,2.9-6.6S165.2,137.8,163.3,135.9z"/>
</g>
</svg>
