<?xml version="1.0" encoding="utf-8"?>
<!-- Generator: Adobe Illustrator 23.0.3, SVG Export Plug-In . SVG Version: 6.00 Build 0)  -->
<svg version="1.1" id="Capa_1" xmlns="http://www.w3.org/2000/svg" xmlns:xlink="http://www.w3.org/1999/xlink" x="0px" y="0px"
	 viewBox="0 0 166.2 284.9" style="enable-background:new 0 0 166.2 284.9;" xml:space="preserve">
<g>
	<path d="M0,142.6c0,2.5,1,4.7,2.9,6.6l133,133c1.9,1.9,4.1,2.9,6.6,2.9s4.7-1,6.6-2.9l14.3-14.3c2-1.9,2.9-4.1,2.9-6.6
		s-1-4.7-2.9-6.6L51.2,142.5L163.4,30.3c2-1.9,2.9-4.1,2.9-6.6s-0.9-4.7-2.9-6.6L149.2,2.9C147.3,1,145.1,0,142.6,0
		c-2.5,0-4.7,1-6.6,2.9L3,135.9C1.1,137.8,0,140.1,0,142.6z"/>
	<path d="M0,142.6c0,2.5,1,4.7,2.9,6.6l133,133c1.9,1.9,4.1,2.9,6.6,2.9s4.7-1,6.6-2.9l14.3-14.3c2-1.9,2.9-4.1,2.9-6.6
		s-1-4.7-2.9-6.6L51.2,142.5L163.4,30.3c2-1.9,2.9-4.1,2.9-6.6s-0.9-4.7-2.9-6.6L149.2,2.9C147.3,1,145.1,0,142.6,0
		c-2.5,0-4.7,1-6.6,2.9L3,135.9C1.1,137.8,0,140.1,0,142.6z"/>
</g>
</svg>
